STARTFONT 2.1
FONT -Monotype-Rockwell-Medium-I-Normal--14-140-72-72-P-68-ISO8859-1
SIZE 14 72 72
FONTBOUNDINGBOX 20 17 -4 -3

STARTPROPERTIES 22
FOUNDRY "Monotype"
FAMILY_NAME "Rockwell"
WEIGHT_NAME "Medium"
SLANT "I"
SETWIDTH_NAME "Normal"
ADD_STYLE_NAME ""
PIXEL_SIZE 14
POINT_SIZE 140
RESOLUTION_X 72
RESOLUTION_Y 72
SPACING "P"
AVERAGE_WIDTH 68
CHARSET_REGISTRY "ISO8859"
CHARSET_ENCODING "1"
FULL_NAME "Rockwell-Italic"
COPYRIGHT "Copyright (c) 1991 The Monotype Corporation plc."
WEIGHT 10
X_HEIGHT 7
QUAD_WIDTH 9
DEFAULT_CHAR 32
FONT_DESCENT 4
FONT_ASCENT 12
ENDPROPERTIES

CHARS 190

STARTCHAR space
ENCODING 32
SWIDTH 250 0
DWIDTH 4 0
BBX 1 1 0 0
BITMAP
00
ENDCHAR

STARTCHAR exclam
ENCODING 33
SWIDTH 281 0
DWIDTH 4 0
BBX 4 10 1 0
BITMAP
30
20
20
20
60
40
40
00
00
C0
ENDCHAR

STARTCHAR quotedbl
ENCODING 34
SWIDTH 417 0
DWIDTH 6 0
BBX 4 4 2 6
BITMAP
50
90
90
90
ENDCHAR

STARTCHAR numbersign
ENCODING 35
SWIDTH 668 0
DWIDTH 9 0
BBX 8 10 1 0
BITMAP
12
22
FF
22
24
24
FF
44
44
4C
ENDCHAR

STARTCHAR dollar
ENCODING 36
SWIDTH 479 0
DWIDTH 7 0
BBX 6 11 1 -1
BITMAP
38
2C
54
70
30
18
1C
AC
A8
70
60
ENDCHAR

STARTCHAR percent
ENCODING 37
SWIDTH 1000 0
DWIDTH 14 0
BBX 11 10 2 0
BITMAP
7060
D080
9100
9300
E600
0DC0
1B40
3240
6240
C180
ENDCHAR

STARTCHAR ampersand
ENCODING 38
SWIDTH 625 0
DWIDTH 9 0
BBX 9 10 1 0
BITMAP
1C00
3400
3400
1800
3000
4980
CA00
8600
CC00
7F00
ENDCHAR

STARTCHAR quoteright
ENCODING 39
SWIDTH 281 0
DWIDTH 4 0
BBX 3 4 2 6
BITMAP
60
40
40
80
ENDCHAR

STARTCHAR parenleft
ENCODING 40
SWIDTH 375 0
DWIDTH 5 0
BBX 5 13 1 -3
BITMAP
08
10
20
40
40
C0
80
80
80
80
C0
40
20
ENDCHAR

STARTCHAR parenright
ENCODING 41
SWIDTH 375 0
DWIDTH 5 0
BBX 5 13 0 -3
BITMAP
10
10
08
08
08
08
08
08
18
10
30
60
80
ENDCHAR

STARTCHAR asterisk
ENCODING 42
SWIDTH 521 0
DWIDTH 7 0
BBX 6 6 1 4
BITMAP
10
10
D4
38
70
D8
ENDCHAR

STARTCHAR plus
ENCODING 43
SWIDTH 667 0
DWIDTH 9 0
BBX 7 7 1 1
BITMAP
10
10
10
FE
10
10
10
ENDCHAR

STARTCHAR comma
ENCODING 44
SWIDTH 281 0
DWIDTH 4 0
BBX 3 4 0 -2
BITMAP
60
40
40
80
ENDCHAR

STARTCHAR minus
ENCODING 45
SWIDTH 667 0
DWIDTH 9 0
BBX 7 1 1 4
BITMAP
FE
ENDCHAR

STARTCHAR period
ENCODING 46
SWIDTH 281 0
DWIDTH 4 0
BBX 2 1 1 0
BITMAP
C0
ENDCHAR

STARTCHAR slash
ENCODING 47
SWIDTH 438 0
DWIDTH 6 0
BBX 7 13 0 -3
BITMAP
02
04
04
08
08
18
10
10
20
20
40
40
80
ENDCHAR

STARTCHAR zero
ENCODING 48
SWIDTH 531 0
DWIDTH 7 0
BBX 7 10 1 0
BITMAP
1C
24
46
46
C4
84
84
8C
88
70
ENDCHAR

STARTCHAR one
ENCODING 49
SWIDTH 531 0
DWIDTH 7 0
BBX 4 10 2 0
BITMAP
30
10
10
10
20
20
20
20
20
F0
ENDCHAR

STARTCHAR two
ENCODING 50
SWIDTH 531 0
DWIDTH 7 0
BBX 7 10 0 0
BITMAP
1C
26
22
46
0C
18
20
44
C4
F8
ENDCHAR

STARTCHAR three
ENCODING 51
SWIDTH 531 0
DWIDTH 7 0
BBX 7 10 1 0
BITMAP
1C
26
46
04
18
08
04
84
CC
78
ENDCHAR

STARTCHAR four
ENCODING 52
SWIDTH 531 0
DWIDTH 7 0
BBX 7 10 1 0
BITMAP
04
0C
14
24
68
C8
FE
08
18
38
ENDCHAR

STARTCHAR five
ENCODING 53
SWIDTH 531 0
DWIDTH 7 0
BBX 7 10 1 0
BITMAP
3E
26
20
78
4C
04
04
8C
88
70
ENDCHAR

STARTCHAR six
ENCODING 54
SWIDTH 531 0
DWIDTH 7 0
BBX 6 10 1 0
BITMAP
1C
24
44
40
F8
C8
88
88
C8
70
ENDCHAR

STARTCHAR seven
ENCODING 55
SWIDTH 531 0
DWIDTH 7 0
BBX 7 10 1 0
BITMAP
7E
C4
08
08
10
10
20
20
20
F0
ENDCHAR

STARTCHAR eight
ENCODING 56
SWIDTH 531 0
DWIDTH 7 0
BBX 7 10 1 0
BITMAP
1C
24
46
64
3C
48
8C
8C
C8
70
ENDCHAR

STARTCHAR nine
ENCODING 57
SWIDTH 531 0
DWIDTH 7 0
BBX 6 10 1 0
BITMAP
38
24
44
44
44
3C
0C
88
98
70
ENDCHAR

STARTCHAR colon
ENCODING 58
SWIDTH 281 0
DWIDTH 4 0
BBX 3 7 1 0
BITMAP
60
00
00
00
00
00
C0
ENDCHAR

STARTCHAR semicolon
ENCODING 59
SWIDTH 281 0
DWIDTH 4 0
BBX 4 9 0 -2
BITMAP
30
00
00
00
00
60
40
40
80
ENDCHAR

STARTCHAR less
ENCODING 60
SWIDTH 667 0
DWIDTH 9 0
BBX 7 8 1 1
BITMAP
02
0E
38
C0
C0
38
0E
02
ENDCHAR

STARTCHAR equal
ENCODING 61
SWIDTH 667 0
DWIDTH 9 0
BBX 7 4 1 3
BITMAP
FE
00
00
FE
ENDCHAR

STARTCHAR greater
ENCODING 62
SWIDTH 667 0
DWIDTH 9 0
BBX 7 8 1 1
BITMAP
80
60
18
06
06
18
60
80
ENDCHAR

STARTCHAR question
ENCODING 63
SWIDTH 458 0
DWIDTH 6 0
BBX 6 10 1 0
BITMAP
78
48
0C
08
30
40
40
00
00
C0
ENDCHAR

STARTCHAR at
ENCODING 64
SWIDTH 1010 0
DWIDTH 14 0
BBX 13 13 1 -3
BITMAP
0F80
3060
6010
47D0
8988
9088
9090
9190
91A0
CFC8
4010
3060
0F80
ENDCHAR

STARTCHAR A
ENCODING 65
SWIDTH 646 0
DWIDTH 9 0
BBX 10 10 0 0
BITMAP
0F80
0500
0D00
0900
1900
1F00
3100
2180
6180
F3C0
ENDCHAR

STARTCHAR B
ENCODING 66
SWIDTH 563 0
DWIDTH 8 0
BBX 8 10 0 0
BITMAP
3E
13
11
23
3E
22
22
22
46
FC
ENDCHAR

STARTCHAR C
ENCODING 67
SWIDTH 719 0
DWIDTH 10 0
BBX 10 10 1 0
BITMAP
0F40
30C0
60C0
4000
C000
8000
8000
C100
6300
3C00
ENDCHAR

STARTCHAR D
ENCODING 68
SWIDTH 708 0
DWIDTH 10 0
BBX 10 10 0 0
BITMAP
3F00
1180
10C0
20C0
20C0
20C0
2080
2180
4300
FE00
ENDCHAR

STARTCHAR E
ENCODING 69
SWIDTH 573 0
DWIDTH 8 0
BBX 9 10 0 0
BITMAP
3F80
1080
1100
2000
3C00
2000
2000
2300
4200
FE00
ENDCHAR

STARTCHAR F
ENCODING 70
SWIDTH 521 0
DWIDTH 7 0
BBX 9 10 0 0
BITMAP
3F80
1080
1100
2000
3C00
2000
2000
2000
4000
F000
ENDCHAR

STARTCHAR G
ENCODING 71
SWIDTH 781 0
DWIDTH 11 0
BBX 10 10 1 0
BITMAP
0FC0
30C0
6040
4000
C000
8380
8080
C100
6300
3C00
ENDCHAR

STARTCHAR H
ENCODING 72
SWIDTH 677 0
DWIDTH 9 0
BBX 10 10 0 0
BITMAP
39C0
1080
1080
2080
3F80
2100
2100
2100
4100
E780
ENDCHAR

STARTCHAR I
ENCODING 73
SWIDTH 292 0
DWIDTH 4 0
BBX 5 10 0 0
BITMAP
38
10
10
20
20
20
20
20
40
E0
ENDCHAR

STARTCHAR J
ENCODING 74
SWIDTH 292 0
DWIDTH 4 0
BBX 7 13 0 -3
BITMAP
0E
0C
08
08
08
08
10
10
10
10
20
20
C0
ENDCHAR

STARTCHAR K
ENCODING 75
SWIDTH 594 0
DWIDTH 8 0
BBX 10 10 0 0
BITMAP
3BC0
1100
1200
2400
2800
2800
2400
2400
4200
E700
ENDCHAR

STARTCHAR L
ENCODING 76
SWIDTH 490 0
DWIDTH 7 0
BBX 7 10 0 0
BITMAP
3C
10
10
10
20
20
22
22
42
FE
ENDCHAR

STARTCHAR M
ENCODING 77
SWIDTH 833 0
DWIDTH 12 0
BBX 13 10 0 0
BITMAP
3838
1870
38E0
28A0
2D20
2520
2640
4640
4440
E4E0
ENDCHAR

STARTCHAR N
ENCODING 78
SWIDTH 698 0
DWIDTH 10 0
BBX 11 10 0 0
BITMAP
38E0
1840
1440
2480
2480
2480
2280
2300
4300
E100
ENDCHAR

STARTCHAR O
ENCODING 79
SWIDTH 781 0
DWIDTH 11 0
BBX 10 10 1 0
BITMAP
1F00
3180
60C0
40C0
C0C0
80C0
8080
C180
4300
3C00
ENDCHAR

STARTCHAR P
ENCODING 80
SWIDTH 542 0
DWIDTH 8 0
BBX 8 10 0 0
BITMAP
3E
11
11
21
23
3E
20
20
40
F0
ENDCHAR

STARTCHAR Q
ENCODING 81
SWIDTH 781 0
DWIDTH 11 0
BBX 10 12 1 -2
BITMAP
1F00
3180
60C0
40C0
C0C0
80C0
8080
C180
4300
7C00
4C00
0700
ENDCHAR

STARTCHAR R
ENCODING 82
SWIDTH 583 0
DWIDTH 8 0
BBX 8 10 0 0
BITMAP
3F
11
11
21
3F
24
24
24
44
E3
ENDCHAR

STARTCHAR S
ENCODING 83
SWIDTH 521 0
DWIDTH 7 0
BBX 8 10 0 0
BITMAP
1F
22
22
20
10
0C
04
44
C4
B8
ENDCHAR

STARTCHAR T
ENCODING 84
SWIDTH 583 0
DWIDTH 8 0
BBX 9 10 1 0
BITMAP
7F80
8900
8900
1000
1000
1000
1000
1000
2000
7000
ENDCHAR

STARTCHAR U
ENCODING 85
SWIDTH 635 0
DWIDTH 9 0
BBX 9 10 1 0
BITMAP
7380
6300
4200
4200
4200
C200
C400
8400
CC00
7800
ENDCHAR

STARTCHAR V
ENCODING 86
SWIDTH 677 0
DWIDTH 9 0
BBX 9 10 1 0
BITMAP
E380
4100
4200
4200
6400
6800
6800
7000
6000
6000
ENDCHAR

STARTCHAR W
ENCODING 87
SWIDTH 990 0
DWIDTH 14 0
BBX 14 10 1 0
BITMAP
E79C
4310
4510
4520
4920
4940
5140
5180
6180
6100
ENDCHAR

STARTCHAR X
ENCODING 88
SWIDTH 635 0
DWIDTH 9 0
BBX 10 10 0 0
BITMAP
39C0
1980
0900
0A00
0C00
0C00
1400
3600
6200
E700
ENDCHAR

STARTCHAR Y
ENCODING 89
SWIDTH 573 0
DWIDTH 8 0
BBX 9 10 1 0
BITMAP
E780
4200
2400
2800
3800
1000
2000
2000
2000
F000
ENDCHAR

STARTCHAR Z
ENCODING 90
SWIDTH 563 0
DWIDTH 8 0
BBX 8 10 0 0
BITMAP
3F
23
22
04
08
10
30
22
42
FC
ENDCHAR

STARTCHAR bracketleft
ENCODING 91
SWIDTH 313 0
DWIDTH 4 0
BBX 6 13 0 -3
BITMAP
1C
10
20
20
20
20
20
40
40
40
40
80
E0
ENDCHAR

STARTCHAR backslash
ENCODING 92
SWIDTH 438 0
DWIDTH 8 0
BBX 2 10 3 0
BITMAP
80
80
80
C0
40
40
40
40
40
40
ENDCHAR

STARTCHAR bracketright
ENCODING 93
SWIDTH 313 0
DWIDTH 4 0
BBX 6 13 0 -3
BITMAP
1C
08
08
08
08
10
10
10
10
10
20
20
E0
ENDCHAR

STARTCHAR asciicircum
ENCODING 94
SWIDTH 427 0
DWIDTH 6 0
BBX 6 5 0 5
BITMAP
30
30
48
48
84
ENDCHAR

STARTCHAR underscore
ENCODING 95
SWIDTH 500 0
DWIDTH 7 0
BBX 7 1 0 -3
BITMAP
FE
ENDCHAR

STARTCHAR quoteleft
ENCODING 96
SWIDTH 281 0
DWIDTH 4 0
BBX 3 4 2 6
BITMAP
60
40
C0
C0
ENDCHAR

STARTCHAR a
ENCODING 97
SWIDTH 531 0
DWIDTH 7 0
BBX 6 7 1 0
BITMAP
3C
64
04
7C
8C
88
7C
ENDCHAR

STARTCHAR b
ENCODING 98
SWIDTH 615 0
DWIDTH 9 0
BBX 8 10 0 0
BITMAP
30
10
10
2E
31
21
21
61
62
DC
ENDCHAR

STARTCHAR c
ENCODING 99
SWIDTH 500 0
DWIDTH 7 0
BBX 7 7 1 0
BITMAP
3A
44
C0
80
80
CC
78
ENDCHAR

STARTCHAR d
ENCODING 100
SWIDTH 604 0
DWIDTH 8 0
BBX 8 10 1 0
BITMAP
03
01
03
3A
46
C2
82
84
CC
76
ENDCHAR

STARTCHAR e
ENCODING 101
SWIDTH 552 0
DWIDTH 8 0
BBX 7 7 1 0
BITMAP
38
64
C6
FE
80
CC
78
ENDCHAR

STARTCHAR f
ENCODING 102
SWIDTH 281 0
DWIDTH 4 0
BBX 6 10 0 0
BITMAP
1C
10
10
70
20
20
20
40
40
E0
ENDCHAR

STARTCHAR g
ENCODING 103
SWIDTH 604 0
DWIDTH 8 0
BBX 9 10 0 -3
BITMAP
1D80
2300
4300
4200
4200
6600
3A00
0400
8400
7800
ENDCHAR

STARTCHAR h
ENCODING 104
SWIDTH 552 0
DWIDTH 8 0
BBX 7 10 0 0
BITMAP
30
10
10
2E
32
22
22
24
44
E6
ENDCHAR

STARTCHAR i
ENCODING 105
SWIDTH 281 0
DWIDTH 4 0
BBX 4 10 0 0
BITMAP
10
00
00
60
20
20
20
40
40
E0
ENDCHAR

STARTCHAR j
ENCODING 106
SWIDTH 281 0
DWIDTH 4 0
BBX 5 13 0 -3
BITMAP
08
00
00
38
10
10
10
10
20
20
20
60
C0
ENDCHAR

STARTCHAR k
ENCODING 107
SWIDTH 521 0
DWIDTH 7 0
BBX 8 10 0 0
BITMAP
30
10
10
27
26
2C
30
28
48
E6
ENDCHAR

STARTCHAR l
ENCODING 108
SWIDTH 281 0
DWIDTH 4 0
BBX 4 10 0 0
BITMAP
30
10
10
20
20
20
20
40
40
E0
ENDCHAR

STARTCHAR m
ENCODING 109
SWIDTH 844 0
DWIDTH 12 0
BBX 11 7 0 0
BITMAP
7EE0
3320
2220
2220
4440
4440
E660
ENDCHAR

STARTCHAR n
ENCODING 110
SWIDTH 552 0
DWIDTH 8 0
BBX 7 7 0 0
BITMAP
7E
32
22
22
44
44
E6
ENDCHAR

STARTCHAR o
ENCODING 111
SWIDTH 563 0
DWIDTH 8 0
BBX 7 7 1 0
BITMAP
3C
66
C2
82
86
CC
78
ENDCHAR

STARTCHAR p
ENCODING 112
SWIDTH 604 0
DWIDTH 8 0
BBX 9 10 0 -3
BITMAP
3700
1980
1080
2080
2180
3100
2E00
2000
4000
E000
ENDCHAR

STARTCHAR q
ENCODING 113
SWIDTH 604 0
DWIDTH 8 0
BBX 8 10 1 -3
BITMAP
3B
46
C2
82
84
CC
74
04
04
1C
ENDCHAR

STARTCHAR r
ENCODING 114
SWIDTH 396 0
DWIDTH 6 0
BBX 6 7 0 0
BITMAP
7C
30
20
20
20
40
E0
ENDCHAR

STARTCHAR s
ENCODING 115
SWIDTH 427 0
DWIDTH 6 0
BBX 6 7 0 0
BITMAP
3C
44
60
38
0C
C8
F8
ENDCHAR

STARTCHAR t
ENCODING 116
SWIDTH 292 0
DWIDTH 4 0
BBX 3 9 1 0
BITMAP
20
60
E0
40
40
C0
80
80
E0
ENDCHAR

STARTCHAR u
ENCODING 117
SWIDTH 552 0
DWIDTH 8 0
BBX 6 7 1 0
BITMAP
CC
44
44
C8
88
98
EC
ENDCHAR

STARTCHAR v
ENCODING 118
SWIDTH 479 0
DWIDTH 7 0
BBX 7 7 1 0
BITMAP
EE
4C
48
50
70
60
40
ENDCHAR

STARTCHAR w
ENCODING 119
SWIDTH 740 0
DWIDTH 10 0
BBX 10 7 1 0
BITMAP
EEC0
4C80
5C80
5500
6600
6600
4400
ENDCHAR

STARTCHAR x
ENCODING 120
SWIDTH 510 0
DWIDTH 7 0
BBX 8 7 0 0
BITMAP
37
16
1C
18
38
64
EE
ENDCHAR

STARTCHAR y
ENCODING 121
SWIDTH 510 0
DWIDTH 7 0
BBX 9 10 0 -3
BITMAP
3B80
1200
1200
1400
1800
1800
1000
3000
2000
C000
ENDCHAR

STARTCHAR z
ENCODING 122
SWIDTH 417 0
DWIDTH 6 0
BBX 7 7 0 0
BITMAP
3E
4C
08
10
20
4C
F8
ENDCHAR

STARTCHAR braceleft
ENCODING 123
SWIDTH 333 0
DWIDTH 5 0
BBX 5 13 1 -3
BITMAP
18
10
30
20
20
60
80
40
40
40
40
40
60
ENDCHAR

STARTCHAR bar
ENCODING 124
SWIDTH 527 0
DWIDTH 8 0
BBX 4 13 2 -3
BITMAP
10
10
20
20
20
20
60
40
40
40
40
80
80
ENDCHAR

STARTCHAR braceright
ENCODING 125
SWIDTH 333 0
DWIDTH 5 0
BBX 5 13 0 -3
BITMAP
18
08
08
18
10
10
08
10
20
20
20
20
C0
ENDCHAR

STARTCHAR asciitilde
ENCODING 126
SWIDTH 583 0
DWIDTH 8 0
BBX 7 2 2 6
BITMAP
F2
9E
ENDCHAR

STARTCHAR exclamdown
ENCODING 161
SWIDTH 281 0
DWIDTH 4 0
BBX 4 10 0 -3
BITMAP
30
00
00
20
40
40
40
40
C0
80
ENDCHAR

STARTCHAR cent
ENCODING 162
SWIDTH 500 0
DWIDTH 7 0
BBX 7 13 1 -3
BITMAP
04
0C
08
3A
54
D0
90
A0
EC
78
40
40
80
ENDCHAR

STARTCHAR sterling
ENCODING 163
SWIDTH 458 0
DWIDTH 6 0
BBX 7 10 0 0
BITMAP
1C
36
26
20
20
78
20
E0
A4
D8
ENDCHAR

STARTCHAR currency
ENCODING 164
SWIDTH 667 0
DWIDTH 9 0
BBX 6 6 2 1
BITMAP
FC
CC
84
84
CC
FC
ENDCHAR

STARTCHAR yen
ENCODING 165
SWIDTH 573 0
DWIDTH 8 0
BBX 9 10 0 0
BITMAP
7380
2300
FF80
1400
FF00
1000
1000
1000
1000
7800
ENDCHAR

STARTCHAR brokenbar
ENCODING 166
SWIDTH 527 0
DWIDTH 8 0
BBX 4 13 2 -3
BITMAP
10
10
20
20
20
20
00
00
40
40
40
80
80
ENDCHAR

STARTCHAR section
ENCODING 167
SWIDTH 448 0
DWIDTH 6 0
BBX 7 13 0 -3
BITMAP
3C
64
22
30
58
44
C4
64
38
08
08
88
70
ENDCHAR

STARTCHAR dieresis
ENCODING 168
SWIDTH 333 0
DWIDTH 5 0
BBX 4 1 2 9
BITMAP
90
ENDCHAR

STARTCHAR copyright
ENCODING 169
SWIDTH 740 0
DWIDTH 10 0
BBX 10 10 0 0
BITMAP
1E00
6180
4C80
9240
9040
9040
9240
4C80
6180
1E00
ENDCHAR

STARTCHAR ordfeminine
ENCODING 170
SWIDTH 344 0
DWIDTH 5 0
BBX 4 5 1 5
BITMAP
70
50
F0
90
F0
ENDCHAR

STARTCHAR guillemotleft
ENCODING 171
SWIDTH 458 0
DWIDTH 6 0
BBX 7 7 0 0
BITMAP
2C
24
24
16
24
48
D8
ENDCHAR

STARTCHAR logicalnot
ENCODING 172
SWIDTH 667 0
DWIDTH 9 0
BBX 7 4 1 3
BITMAP
FE
02
02
02
ENDCHAR

STARTCHAR hyphen
ENCODING 173
SWIDTH 385 0
DWIDTH 5 0
BBX 4 1 1 3
BITMAP
F0
ENDCHAR

STARTCHAR registered
ENCODING 174
SWIDTH 740 0
DWIDTH 10 0
BBX 10 10 0 0
BITMAP
1E00
6180
5E80
9240
9E40
9440
9440
5280
6180
1E00
ENDCHAR

STARTCHAR macron
ENCODING 175
SWIDTH 333 0
DWIDTH 5 0
BBX 5 1 1 8
BITMAP
F8
ENDCHAR

STARTCHAR degree
ENCODING 176
SWIDTH 396 0
DWIDTH 6 0
BBX 5 4 2 6
BITMAP
70
88
88
70
ENDCHAR

STARTCHAR plusminus
ENCODING 177
SWIDTH 667 0
DWIDTH 9 0
BBX 7 10 1 0
BITMAP
10
10
10
FE
10
10
10
10
00
FE
ENDCHAR

STARTCHAR twosuperior
ENCODING 178
SWIDTH 323 0
DWIDTH 4 0
BBX 4 6 -4 4
BITMAP
30
50
70
60
B0
E0
ENDCHAR

STARTCHAR threesuperior
ENCODING 179
SWIDTH 323 0
DWIDTH 4 0
BBX 4 6 -4 4
BITMAP
70
10
60
20
20
E0
ENDCHAR

STARTCHAR acute
ENCODING 180
SWIDTH 333 0
DWIDTH 5 0
BBX 4 2 3 8
BITMAP
70
C0
ENDCHAR

STARTCHAR mu
ENCODING 181
SWIDTH 552 0
DWIDTH 8 0
BBX 8 10 0 -3
BITMAP
21
22
22
62
42
66
7C
40
80
80
ENDCHAR

STARTCHAR paragraph
ENCODING 182
SWIDTH 542 0
DWIDTH 8 0
BBX 8 13 1 -3
BITMAP
3F
72
F2
F4
74
24
24
24
28
48
48
48
58
ENDCHAR

STARTCHAR periodcentered
ENCODING 183
SWIDTH 292 0
DWIDTH 4 0
BBX 2 1 1 4
BITMAP
C0
ENDCHAR

STARTCHAR cedilla
ENCODING 184
SWIDTH 333 0
DWIDTH 5 0
BBX 3 3 1 -3
BITMAP
40
20
C0
ENDCHAR

STARTCHAR onesuperior
ENCODING 185
SWIDTH 323 0
DWIDTH 4 0
BBX 3 6 -4 4
BITMAP
60
40
40
40
40
C0
ENDCHAR

STARTCHAR ordmasculine
ENCODING 186
SWIDTH 365 0
DWIDTH 5 0
BBX 4 4 1 6
BITMAP
70
90
90
F0
ENDCHAR

STARTCHAR guillemotright
ENCODING 187
SWIDTH 458 0
DWIDTH 6 0
BBX 7 7 1 0
BITMAP
36
6C
48
90
D0
48
48
ENDCHAR

STARTCHAR onequarter
ENCODING 188
SWIDTH 1000 0
DWIDTH 13 0
BBX 13 10 3 0
BITMAP
6030
4040
4080
4180
4318
C618
0C30
1850
3078
6030
ENDCHAR

STARTCHAR onehalf
ENCODING 189
SWIDTH 1000 0
DWIDTH 13 0
BBX 13 10 3 0
BITMAP
6030
4040
4080
4180
4318
C628
0C38
1830
3058
6070
ENDCHAR

STARTCHAR threequarters
ENCODING 190
SWIDTH 1000 0
DWIDTH 13 0
BBX 13 10 3 0
BITMAP
7030
1040
6080
2180
2318
E618
0C30
1850
3078
6030
ENDCHAR

STARTCHAR questiondown
ENCODING 191
SWIDTH 458 0
DWIDTH 6 0
BBX 6 10 0 -3
BITMAP
0C
00
00
18
10
70
C0
80
88
70
ENDCHAR

STARTCHAR Agrave
ENCODING 192
SWIDTH 646 0
DWIDTH 9 0
BBX 10 13 0 0
BITMAP
0700
0180
0000
0F80
0500
0D00
0900
1900
1F00
3100
2180
6180
F3C0
ENDCHAR

STARTCHAR Aacute
ENCODING 193
SWIDTH 646 0
DWIDTH 9 0
BBX 10 13 0 0
BITMAP
01C0
0300
0000
0F80
0500
0D00
0900
1900
1F00
3100
2180
6180
F3C0
ENDCHAR

STARTCHAR Acircumflex
ENCODING 194
SWIDTH 646 0
DWIDTH 9 0
BBX 10 13 0 0
BITMAP
0380
0680
0000
0F80
0500
0D00
0900
1900
1F00
3100
2180
6180
F3C0
ENDCHAR

STARTCHAR Atilde
ENCODING 195
SWIDTH 646 0
DWIDTH 9 0
BBX 10 13 0 0
BITMAP
06C0
0580
0000
0F80
0500
0D00
0900
1900
1F00
3100
2180
6180
F3C0
ENDCHAR

STARTCHAR Adieresis
ENCODING 196
SWIDTH 646 0
DWIDTH 9 0
BBX 10 12 0 0
BITMAP
0480
0000
0F80
0500
0D00
0900
1900
1F00
3100
2180
6180
F3C0
ENDCHAR

STARTCHAR Aring
ENCODING 197
SWIDTH 646 0
DWIDTH 9 0
BBX 10 14 0 0
BITMAP
0700
0500
0700
0000
0F80
0500
0D00
0900
1900
1F00
3100
2180
6180
F3C0
ENDCHAR

STARTCHAR AE
ENCODING 198
SWIDTH 969 0
DWIDTH 14 0
BBX 15 10 0 0
BITMAP
07FE
0344
0284
0480
0FF0
0880
1100
3108
2108
F7F8
ENDCHAR

STARTCHAR Ccedilla
ENCODING 199
SWIDTH 719 0
DWIDTH 10 0
BBX 10 13 1 -3
BITMAP
0F40
30C0
60C0
4000
C000
8000
8000
C100
6300
3C00
1000
0800
3000
ENDCHAR

STARTCHAR Egrave
ENCODING 200
SWIDTH 573 0
DWIDTH 8 0
BBX 9 13 0 0
BITMAP
0E00
0300
0000
3F80
1080
1100
2000
3C00
2000
2000
2300
4200
FE00
ENDCHAR

STARTCHAR Eacute
ENCODING 201
SWIDTH 573 0
DWIDTH 8 0
BBX 9 13 0 0
BITMAP
0380
0600
0000
3F80
1080
1100
2000
3C00
2000
2000
2300
4200
FE00
ENDCHAR

STARTCHAR Ecircumflex
ENCODING 202
SWIDTH 573 0
DWIDTH 8 0
BBX 9 13 0 0
BITMAP
0E00
1A00
0000
3F80
1080
1100
2000
3C00
2000
2000
2300
4200
FE00
ENDCHAR

STARTCHAR Edieresis
ENCODING 203
SWIDTH 573 0
DWIDTH 8 0
BBX 9 12 0 0
BITMAP
0900
0000
3F80
1080
1100
2000
3C00
2000
2000
2300
4200
FE00
ENDCHAR

STARTCHAR Igrave
ENCODING 204
SWIDTH 292 0
DWIDTH 4 0
BBX 6 13 0 0
BITMAP
38
0C
00
38
10
10
20
20
20
20
20
40
E0
ENDCHAR

STARTCHAR Iacute
ENCODING 205
SWIDTH 292 0
DWIDTH 4 0
BBX 7 13 0 0
BITMAP
0E
18
00
38
10
10
20
20
20
20
20
40
E0
ENDCHAR

STARTCHAR Icircumflex
ENCODING 206
SWIDTH 292 0
DWIDTH 4 0
BBX 5 13 0 0
BITMAP
38
68
00
38
10
10
20
20
20
20
20
40
E0
ENDCHAR

STARTCHAR Idieresis
ENCODING 207
SWIDTH 292 0
DWIDTH 4 0
BBX 6 12 0 0
BITMAP
24
00
38
10
10
20
20
20
20
20
40
E0
ENDCHAR

STARTCHAR Eth
ENCODING 208
SWIDTH 708 0
DWIDTH 10 0
BBX 10 10 0 0
BITMAP
3F00
1180
10C0
20C0
7CC0
20C0
2080
2180
4300
FE00
ENDCHAR

STARTCHAR Ntilde
ENCODING 209
SWIDTH 698 0
DWIDTH 10 0
BBX 11 13 0 0
BITMAP
06C0
0580
0000
38E0
1840
1440
2480
2480
2480
2280
2300
4300
E100
ENDCHAR

STARTCHAR Ograve
ENCODING 210
SWIDTH 781 0
DWIDTH 11 0
BBX 10 13 1 0
BITMAP
0E00
0300
0000
1F00
3180
60C0
40C0
C0C0
80C0
8080
C180
4300
3C00
ENDCHAR

STARTCHAR Oacute
ENCODING 211
SWIDTH 781 0
DWIDTH 11 0
BBX 10 13 1 0
BITMAP
0380
0600
0000
1F00
3180
60C0
40C0
C0C0
80C0
8080
C180
4300
3C00
ENDCHAR

STARTCHAR Ocircumflex
ENCODING 212
SWIDTH 781 0
DWIDTH 11 0
BBX 10 13 1 0
BITMAP
0700
0D00
0000
1F00
3180
60C0
40C0
C0C0
80C0
8080
C180
4300
3C00
ENDCHAR

STARTCHAR Otilde
ENCODING 213
SWIDTH 781 0
DWIDTH 11 0
BBX 10 13 1 0
BITMAP
0D80
0B00
0000
1F00
3180
60C0
40C0
C0C0
80C0
8080
C180
4300
3C00
ENDCHAR

STARTCHAR Odieresis
ENCODING 214
SWIDTH 781 0
DWIDTH 11 0
BBX 10 12 1 0
BITMAP
0900
0000
1F00
3180
60C0
40C0
C0C0
80C0
8080
C180
4300
3C00
ENDCHAR

STARTCHAR multiply
ENCODING 215
SWIDTH 668 0
DWIDTH 9 0
BBX 7 8 1 1
BITMAP
82
44
28
38
38
28
44
82
ENDCHAR

STARTCHAR Oslash
ENCODING 216
SWIDTH 781 0
DWIDTH 11 0
BBX 10 10 1 0
BITMAP
1F40
3180
61C0
42C0
C6C0
8CC0
9880
D180
6300
7C00
ENDCHAR

STARTCHAR Ugrave
ENCODING 217
SWIDTH 635 0
DWIDTH 9 0
BBX 9 13 1 0
BITMAP
1C00
0600
0000
7380
6300
4200
4200
4200
C200
C400
8400
CC00
7800
ENDCHAR

STARTCHAR Uacute
ENCODING 218
SWIDTH 635 0
DWIDTH 9 0
BBX 9 13 1 0
BITMAP
0700
0C00
0000
7380
6300
4200
4200
4200
C200
C400
8400
CC00
7800
ENDCHAR

STARTCHAR Ucircumflex
ENCODING 219
SWIDTH 635 0
DWIDTH 9 0
BBX 9 13 1 0
BITMAP
0E00
1A00
0000
7380
6300
4200
4200
4200
C200
C400
8400
CC00
7800
ENDCHAR

STARTCHAR Udieresis
ENCODING 220
SWIDTH 635 0
DWIDTH 9 0
BBX 9 12 1 0
BITMAP
1200
0000
7380
6300
4200
4200
4200
C200
C400
8400
CC00
7800
ENDCHAR

STARTCHAR Yacute
ENCODING 221
SWIDTH 573 0
DWIDTH 8 0
BBX 9 13 1 0
BITMAP
0700
0C00
0000
E780
4200
2400
2800
3800
1000
2000
2000
2000
F000
ENDCHAR

STARTCHAR Thorn
ENCODING 222
SWIDTH 542 0
DWIDTH 8 0
BBX 8 10 0 0
BITMAP
38
10
1E
33
23
23
22
3C
60
F0
ENDCHAR

STARTCHAR germandbls
ENCODING 223
SWIDTH 615 0
DWIDTH 9 0
BBX 8 10 0 0
BITMAP
0E
11
11
21
26
23
21
21
43
EE
ENDCHAR

STARTCHAR agrave
ENCODING 224
SWIDTH 531 0
DWIDTH 7 0
BBX 6 10 1 0
BITMAP
38
0C
00
3C
64
04
7C
8C
88
7C
ENDCHAR

STARTCHAR aacute
ENCODING 225
SWIDTH 531 0
DWIDTH 7 0
BBX 7 10 1 0
BITMAP
0E
18
00
3C
64
04
7C
8C
88
7C
ENDCHAR

STARTCHAR acircumflex
ENCODING 226
SWIDTH 531 0
DWIDTH 7 0
BBX 6 10 1 0
BITMAP
1C
34
00
3C
64
04
7C
8C
88
7C
ENDCHAR

STARTCHAR atilde
ENCODING 227
SWIDTH 531 0
DWIDTH 7 0
BBX 8 10 1 0
BITMAP
1B
16
00
3C
64
04
7C
8C
88
7C
ENDCHAR

STARTCHAR adieresis
ENCODING 228
SWIDTH 531 0
DWIDTH 7 0
BBX 6 9 1 0
BITMAP
24
00
3C
64
04
7C
8C
88
7C
ENDCHAR

STARTCHAR aring
ENCODING 229
SWIDTH 531 0
DWIDTH 7 0
BBX 6 11 1 0
BITMAP
1C
14
1C
00
3C
64
04
7C
8C
88
7C
ENDCHAR

STARTCHAR ae
ENCODING 230
SWIDTH 865 0
DWIDTH 12 0
BBX 11 7 1 0
BITMAP
3DC0
6660
0420
7FE0
CC00
8C40
7780
ENDCHAR

STARTCHAR ccedilla
ENCODING 231
SWIDTH 500 0
DWIDTH 7 0
BBX 7 10 1 -3
BITMAP
3A
44
C0
80
80
CC
78
20
10
60
ENDCHAR

STARTCHAR egrave
ENCODING 232
SWIDTH 552 0
DWIDTH 8 0
BBX 7 10 1 0
BITMAP
38
0C
00
38
64
C6
FE
80
CC
78
ENDCHAR

STARTCHAR eacute
ENCODING 233
SWIDTH 552 0
DWIDTH 8 0
BBX 7 10 1 0
BITMAP
0E
18
00
38
64
C6
FE
80
CC
78
ENDCHAR

STARTCHAR ecircumflex
ENCODING 234
SWIDTH 552 0
DWIDTH 8 0
BBX 7 10 1 0
BITMAP
1C
34
00
38
64
C6
FE
80
CC
78
ENDCHAR

STARTCHAR edieresis
ENCODING 235
SWIDTH 552 0
DWIDTH 8 0
BBX 7 9 1 0
BITMAP
12
00
38
64
C6
FE
80
CC
78
ENDCHAR

STARTCHAR igrave
ENCODING 236
SWIDTH 281 0
DWIDTH 4 0
BBX 5 10 0 0
BITMAP
70
18
00
60
20
20
20
40
40
E0
ENDCHAR

STARTCHAR iacute
ENCODING 237
SWIDTH 281 0
DWIDTH 4 0
BBX 6 10 0 0
BITMAP
1C
30
00
60
20
20
20
40
40
E0
ENDCHAR

STARTCHAR icircumflex
ENCODING 238
SWIDTH 281 0
DWIDTH 4 0
BBX 5 10 0 0
BITMAP
38
68
00
60
20
20
20
40
40
E0
ENDCHAR

STARTCHAR idieresis
ENCODING 239
SWIDTH 281 0
DWIDTH 4 0
BBX 5 9 0 0
BITMAP
48
00
60
20
20
20
40
40
E0
ENDCHAR

STARTCHAR eth
ENCODING 240
SWIDTH 635 0
DWIDTH 9 0
BBX 7 10 1 0
BITMAP
1E
1C
04
3E
46
C2
82
86
CC
78
ENDCHAR

STARTCHAR ntilde
ENCODING 241
SWIDTH 552 0
DWIDTH 8 0
BBX 8 10 0 0
BITMAP
1B
16
00
7E
32
22
22
44
44
E6
ENDCHAR

STARTCHAR ograve
ENCODING 242
SWIDTH 563 0
DWIDTH 8 0
BBX 7 10 1 0
BITMAP
38
0C
00
3C
66
C2
82
86
CC
78
ENDCHAR

STARTCHAR oacute
ENCODING 243
SWIDTH 563 0
DWIDTH 8 0
BBX 8 10 1 0
BITMAP
07
0C
00
3C
66
C2
82
86
CC
78
ENDCHAR

STARTCHAR ocircumflex
ENCODING 244
SWIDTH 563 0
DWIDTH 8 0
BBX 7 10 1 0
BITMAP
1C
34
00
3C
66
C2
82
86
CC
78
ENDCHAR

STARTCHAR otilde
ENCODING 245
SWIDTH 563 0
DWIDTH 8 0
BBX 8 10 1 0
BITMAP
1B
16
00
3C
66
C2
82
86
CC
78
ENDCHAR

STARTCHAR odieresis
ENCODING 246
SWIDTH 563 0
DWIDTH 8 0
BBX 7 9 1 0
BITMAP
12
00
3C
66
C2
82
86
CC
78
ENDCHAR

STARTCHAR divide
ENCODING 247
SWIDTH 668 0
DWIDTH 9 0
BBX 7 7 1 1
BITMAP
10
00
00
FE
00
00
10
ENDCHAR

STARTCHAR oslash
ENCODING 248
SWIDTH 563 0
DWIDTH 8 0
BBX 7 7 1 0
BITMAP
3E
6E
CA
92
A6
CC
F8
ENDCHAR

STARTCHAR ugrave
ENCODING 249
SWIDTH 552 0
DWIDTH 8 0
BBX 6 10 1 0
BITMAP
38
0C
00
CC
44
44
C8
88
98
EC
ENDCHAR

STARTCHAR uacute
ENCODING 250
SWIDTH 552 0
DWIDTH 8 0
BBX 7 10 1 0
BITMAP
0E
18
00
CC
44
44
C8
88
98
EC
ENDCHAR

STARTCHAR ucircumflex
ENCODING 251
SWIDTH 552 0
DWIDTH 8 0
BBX 6 10 1 0
BITMAP
1C
34
00
CC
44
44
C8
88
98
EC
ENDCHAR

STARTCHAR udieresis
ENCODING 252
SWIDTH 552 0
DWIDTH 8 0
BBX 6 9 1 0
BITMAP
24
00
CC
44
44
C8
88
98
EC
ENDCHAR

STARTCHAR yacute
ENCODING 253
SWIDTH 510 0
DWIDTH 7 0
BBX 9 13 0 -3
BITMAP
0380
0600
0000
3B80
1200
1200
1400
1800
1800
1000
3000
2000
C000
ENDCHAR

STARTCHAR thorn
ENCODING 254
SWIDTH 604 0
DWIDTH 8 0
BBX 9 13 0 -3
BITMAP
1800
1000
1000
1700
1980
1080
2080
2180
3100
2E00
2000
4000
E000
ENDCHAR

STARTCHAR ydieresis
ENCODING 255
SWIDTH 510 0
DWIDTH 7 0
BBX 9 12 0 -3
BITMAP
0900
0000
3B80
1200
1200
1400
1800
1800
1000
3000
2000
C000
ENDCHAR
ENDFONT
